<?xml version="1.0" standalone="no"?>
<!DOCTYPE svg PUBLIC "-//W3C//DTD SVG 20010904//EN"
 "http://www.w3.org/TR/2001/REC-SVG-20010904/DTD/svg10.dtd">
<svg version="1.0" xmlns="http://www.w3.org/2000/svg"
 width="760.000000pt" height="760.000000pt" viewBox="0 0 760.000000 760.000000"
 preserveAspectRatio="xMidYMid meet">
<metadata>
Created by potrace 1.14, written by Peter Selinger 2001-2017
</metadata>
<g transform="translate(0.000000,760.000000) scale(0.100000,-0.100000)"
fill="#000000" stroke="none">
<path d="M3530 7569 c-777 -62 -1504 -354 -2109 -846 -141 -115 -426 -401
-535 -538 -406 -511 -667 -1077 -780 -1697 -81 -438 -81 -938 0 -1376 98 -534
317 -1056 631 -1499 228 -323 557 -654 878 -884 1112 -799 2584 -932 3827
-346 690 325 1280 872 1663 1541 484 847 620 1871 374 2826 -360 1403 -1501
2479 -2924 2759 -318 62 -708 85 -1025 60z m467 -1155 c3 -9 -9 -246 -26 -528
-18 -282 -31 -523 -29 -535 3 -21 44 4 408 246 402 267 505 332 513 323 8 -9
157 -268 163 -283 7 -20 -13 -31 -523 -286 -244 -121 -443 -223 -443 -226 0
-3 210 -110 468 -239 257 -129 476 -241 486 -249 19 -14 16 -20 -63 -158 -46
-79 -85 -146 -88 -149 -8 -9 -108 54 -512 322 -361 240 -406 267 -409 247 -2
-12 11 -253 28 -535 18 -282 30 -520 27 -528 -5 -14 -32 -16 -177 -16 l-170 0
0 113 c1 61 14 308 29 547 16 239 27 437 25 439 -2 2 -187 -118 -411 -267
-397 -263 -507 -332 -515 -322 -3 3 -42 70 -87 149 -58 100 -79 147 -72 154 6
6 226 119 490 251 l480 241 -472 237 c-260 130 -480 243 -490 250 -17 13 -14
22 58 148 43 74 83 141 90 149 18 19 33 10 518 -312 224 -148 409 -268 411
-266 2 2 -9 200 -25 439 -15 239 -28 486 -29 548 l0 112 170 0 c147 0 171 -2
177 -16z m-1268 -2296 c0 -68 -12 -313 -27 -546 -15 -233 -26 -425 -24 -427 2
-2 192 121 421 273 230 152 436 287 459 300 l41 22 34 -57 c101 -174 139 -244
136 -247 -21 -17 -192 -105 -546 -281 -233 -115 -423 -211 -423 -215 0 -3 209
-109 463 -237 255 -128 474 -240 487 -251 l22 -18 -29 -50 c-17 -27 -56 -93
-87 -147 l-57 -98 -52 29 c-29 16 -233 149 -455 296 -222 146 -406 266 -410
266 -4 0 5 -192 20 -427 15 -236 27 -481 27 -545 l1 -118 -170 0 -170 0 0 98
c0 53 12 296 27 539 15 243 24 445 21 448 -3 3 -187 -114 -409 -261 -222 -146
-427 -280 -456 -296 l-52 -29 -14 23 c-8 13 -47 79 -87 148 l-72 124 23 19
c12 10 231 122 486 250 254 128 463 235 463 238 0 3 -190 99 -422 214 -352
174 -525 263 -547 281 -4 3 44 91 121 222 l49 82 41 -22 c23 -13 229 -148 460
-300 l418 -278 0 53 c0 28 -11 223 -25 432 -14 209 -25 433 -25 498 l0 117
170 0 170 0 -1 -122z m2531 72 c0 -28 -14 -265 -30 -528 -17 -262 -29 -487
-28 -500 3 -20 44 5 388 235 458 305 525 346 538 330 17 -23 162 -276 162
-284 0 -15 -172 -106 -573 -302 -218 -107 -397 -197 -397 -200 0 -3 218 -115
485 -249 267 -134 485 -248 485 -253 0 -8 -153 -283 -166 -297 -6 -8 -172 97
-536 340 l-388 258 0 -32 c0 -18 14 -242 30 -498 16 -256 30 -489 30 -517 l0
-53 -175 0 -175 0 0 88 c0 48 14 294 30 546 16 253 28 461 27 463 -2 1 -172
-110 -377 -248 -396 -264 -539 -354 -548 -344 -3 3 -43 70 -88 148 l-83 142
22 18 c12 10 233 123 492 251 l470 233 -471 236 c-259 130 -480 244 -492 254
l-21 18 86 148 86 147 51 -29 c28 -16 235 -150 461 -299 225 -149 410 -270
412 -269 1 2 -11 210 -27 462 -17 253 -30 499 -30 548 l0 87 175 0 175 0 0
-50z"/>
</g>
</svg>
