<?xml version="1.0" standalone="no"?>
<!DOCTYPE svg PUBLIC "-//W3C//DTD SVG 20010904//EN"
 "http://www.w3.org/TR/2001/REC-SVG-20010904/DTD/svg10.dtd">
<svg version="1.0" xmlns="http://www.w3.org/2000/svg"
 width="700.000000pt" height="700.000000pt" viewBox="0 0 700.000000 700.000000"
 preserveAspectRatio="xMidYMid meet">
<metadata>
Created by potrace 1.14, written by Peter Selinger 2001-2017
</metadata>
<g transform="translate(0.000000,700.000000) scale(0.100000,-0.100000)"
fill="#000000" stroke="none">
<path d="M3811 6699 c-116 -20 -249 -95 -334 -188 -52 -57 -113 -173 -131
-251 -32 -134 -15 -280 46 -407 45 -94 168 -216 261 -261 97 -47 185 -65 287
-59 121 7 184 24 270 74 336 194 397 652 124 929 -126 129 -341 195 -523 163z"/>
<path d="M3005 5876 c-346 -176 -1242 -631 -1330 -674 -38 -19 -71 -36 -73
-37 -2 -2 17 -30 43 -64 51 -67 96 -159 115 -238 l14 -52 290 148 c160 82 534
271 831 421 297 150 544 277 549 281 6 6 1 17 -12 29 -58 55 -143 229 -151
313 -1 4 -4 7 -8 7 -5 -1 -125 -61 -268 -134z"/>
<path d="M4463 5771 c-33 -58 -116 -144 -180 -187 -32 -21 -60 -40 -62 -42 -3
-1 275 -283 617 -625 341 -342 640 -642 662 -666 23 -24 43 -42 45 -40 2 2 20
28 40 57 52 76 174 192 203 192 5 0 14 6 20 13 8 10 -142 167 -647 675 -362
364 -662 662 -667 662 -5 0 -19 -18 -31 -39z"/>
<path d="M3453 5638 c-6 -7 -29 -51 -53 -98 -23 -47 -84 -166 -135 -265 -51
-99 -147 -288 -215 -420 -67 -132 -164 -321 -215 -420 -223 -434 -355 -694
-355 -697 0 -14 285 -287 292 -280 5 5 45 80 89 168 44 87 127 249 184 359 56
110 155 304 220 430 65 127 157 307 205 400 48 94 144 281 214 417 l126 246
-32 7 c-87 18 -228 90 -285 144 -26 25 -27 25 -40 9z"/>
<path d="M4186 5528 c-45 -25 -187 -56 -260 -56 -108 -1 -108 -1 -103 -9 5 -9
33 -169 43 -243 3 -25 7 -56 10 -70 2 -14 9 -54 14 -90 5 -36 12 -76 15 -90 3
-14 7 -43 10 -65 3 -22 7 -51 9 -65 3 -14 7 -43 11 -65 3 -22 10 -67 15 -100
6 -33 12 -71 14 -85 3 -14 5 -35 5 -46 1 -22 33 -30 176 -49 17 -2 44 -6 60
-9 36 -7 156 -26 168 -26 8 0 6 24 -8 100 -7 39 -40 257 -51 330 -2 19 -9 60
-14 90 -12 73 -18 106 -25 160 -3 25 -11 72 -16 105 -6 33 -13 76 -15 95 -3
19 -7 42 -9 50 -2 8 -7 40 -10 70 -8 71 -14 82 -39 68z"/>
<path d="M1020 5284 c-129 -27 -227 -81 -315 -173 -317 -331 -141 -889 310
-981 366 -75 711 211 706 585 -5 270 -182 494 -451 565 -66 18 -176 19 -250 4z"/>
<path d="M1778 4724 c4 -82 -18 -204 -48 -266 -20 -42 -21 -42 55 -53 22 -3
65 -10 95 -15 30 -5 73 -12 95 -15 22 -4 49 -8 60 -10 11 -1 40 -6 65 -9 25
-3 72 -11 105 -17 33 -5 85 -14 115 -19 30 -5 82 -14 115 -19 33 -6 76 -13 95
-15 19 -3 51 -8 70 -12 35 -7 70 -8 74 -2 19 28 176 351 173 355 -5 4 -116 25
-237 44 -91 14 -93 14 -310 49 -107 18 -204 33 -215 35 -50 7 -117 17 -194 31
-125 21 -117 26 -113 -62z"/>
<path d="M3407 4533 c-24 -41 -177 -344 -177 -351 0 -7 214 -46 375 -69 17 -2
53 -8 80 -13 28 -5 71 -11 96 -15 51 -6 65 -9 159 -25 36 -7 76 -13 90 -15 14
-2 39 -6 55 -9 17 -3 62 -10 100 -16 111 -17 128 -20 155 -25 14 -2 45 -7 70
-10 25 -3 52 -8 60 -10 8 -3 31 -7 50 -9 19 -2 76 -11 125 -20 50 -8 108 -17
130 -21 22 -3 47 -7 55 -10 8 -2 38 -6 65 -10 28 -3 88 -12 135 -20 122 -21
333 -55 383 -61 23 -3 47 -7 53 -9 8 -2 11 22 9 78 -2 88 15 185 46 256 10 24
19 45 19 46 0 5 -53 15 -185 35 -90 13 -121 18 -225 35 -47 8 -103 17 -125 20
-22 3 -62 10 -90 15 -27 6 -68 12 -90 15 -22 3 -49 7 -60 9 -19 3 -77 13 -135
21 -14 2 -79 13 -145 24 -66 11 -138 22 -159 26 -21 3 -48 7 -60 10 -12 2 -39
7 -61 9 -22 3 -53 8 -70 11 -105 18 -118 20 -240 39 -55 9 -111 18 -125 20
-49 9 -105 18 -130 21 -14 2 -68 10 -120 19 -110 18 -107 18 -113 9z"/>
<path d="M6010 4484 c-164 -31 -303 -129 -393 -277 -134 -220 -104 -513 71
-699 142 -151 340 -217 541 -180 221 40 392 198 462 425 28 92 21 260 -15 352
-108 278 -381 434 -666 379z"/>
<path d="M1677 4358 c-45 -77 -180 -201 -237 -220 -9 -3 252 -272 750 -771
l765 -767 180 91 c99 50 181 93 183 94 4 3 -1601 1615 -1609 1615 -4 0 -18
-19 -32 -42z"/>
<path d="M1404 4121 c-28 -27 -144 -54 -254 -57 -63 -3 -114 -8 -114 -12 1 -4
9 -56 19 -117 9 -60 19 -123 21 -140 3 -16 7 -45 10 -64 2 -18 15 -101 29
-185 13 -83 27 -173 31 -201 5 -27 9 -52 9 -55 1 -3 5 -30 9 -60 5 -30 10 -64
12 -75 2 -11 7 -40 9 -65 3 -25 8 -52 10 -60 2 -8 7 -35 10 -60 3 -25 8 -52
10 -60 2 -8 7 -35 10 -60 7 -52 7 -53 34 -220 11 -69 22 -145 26 -170 3 -25
10 -70 15 -100 5 -30 12 -75 15 -100 4 -25 8 -46 10 -48 1 -2 40 9 86 25 70
23 102 27 191 28 70 0 108 4 108 11 0 6 -4 35 -10 65 -10 58 -18 114 -26 168
-5 38 -6 46 -28 176 -8 50 -17 110 -21 135 -3 25 -13 86 -21 135 -9 50 -17
104 -19 120 -4 39 -13 97 -25 160 -5 28 -12 68 -15 90 -3 22 -7 51 -10 65 -2
14 -6 41 -9 60 -12 86 -47 306 -51 320 -2 8 -7 42 -10 75 -4 32 -8 62 -10 65
-2 3 -6 26 -9 51 -9 67 -25 161 -29 165 -2 2 -8 0 -13 -5z"/>
<path d="M4066 3961 c-2 -3 -2 -13 -1 -21 5 -28 15 -94 31 -195 8 -55 17 -111
20 -125 2 -14 9 -56 14 -95 6 -38 15 -95 20 -125 5 -30 12 -75 15 -100 5 -40
12 -83 29 -184 3 -16 8 -50 12 -75 4 -25 8 -55 10 -66 3 -11 7 -38 10 -60 2
-22 13 -94 24 -160 27 -170 29 -182 40 -260 6 -38 12 -77 15 -85 2 -8 6 -37
10 -65 3 -27 14 -102 25 -165 10 -63 22 -135 25 -160 3 -25 10 -67 15 -95 5
-27 14 -87 21 -132 7 -46 14 -83 16 -83 2 0 18 7 34 16 52 26 189 51 271 48
l78 -2 -5 34 c-9 63 -15 99 -19 119 -2 11 -7 43 -10 70 -4 28 -9 61 -11 75
-22 138 -35 222 -40 255 -4 22 -15 92 -25 155 -10 63 -21 137 -25 163 -4 27
-8 58 -11 70 -2 12 -6 37 -9 57 -3 20 -8 47 -10 60 -3 14 -8 45 -11 70 -7 55
-8 64 -33 220 -27 165 -72 448 -76 480 -17 117 -47 295 -51 299 -3 3 -12 6
-22 7 -24 4 -105 17 -119 20 -17 3 -91 14 -138 20 -22 3 -57 9 -78 14 -20 4
-39 5 -41 1z"/>
<path d="M5047 3582 l-427 -217 4 -30 c3 -16 8 -50 11 -75 5 -39 26 -166 42
-265 3 -16 6 -31 8 -33 1 -2 191 93 421 210 231 117 447 226 481 243 35 16 63
35 63 40 0 6 -14 26 -31 45 -57 64 -127 213 -132 279 -1 12 -4 21 -7 21 -3 -1
-197 -98 -433 -218z"/>
<path d="M5600 3318 c-338 -662 -485 -948 -565 -1103 -118 -228 -225 -441
-225 -447 0 -4 19 -9 43 -13 60 -10 172 -64 242 -118 33 -25 61 -45 61 -44 4
5 167 324 294 572 78 154 177 348 220 430 229 444 342 667 338 669 -1 1 -30
10 -63 20 -33 10 -80 28 -105 39 -46 21 -144 88 -155 107 -13 21 -24 6 -85
-112z"/>
<path d="M2213 3218 c-5 -7 -83 -157 -173 -333 -89 -176 -198 -388 -241 -471
l-78 -151 67 -18 c78 -22 157 -61 230 -117 30 -22 55 -38 56 -36 2 1 61 116
131 253 70 138 168 328 217 424 l90 174 -144 144 c-111 111 -147 141 -155 131z"/>
<path d="M3710 2903 c-223 -112 -594 -300 -825 -418 -231 -117 -501 -254 -600
-304 -99 -50 -186 -95 -193 -99 -9 -6 -6 -16 13 -38 63 -72 125 -194 140 -277
4 -20 9 -37 12 -37 5 0 660 331 1248 630 149 76 362 184 473 240 l204 102 -7
45 c-3 25 -8 52 -10 61 -1 10 -10 67 -19 127 -10 61 -20 124 -24 142 l-7 32
-405 -206z"/>
<path d="M3538 2298 c-98 -51 -178 -95 -178 -98 0 -7 760 -773 763 -769 63
104 151 197 234 246 l45 26 -344 344 c-188 188 -343 343 -343 343 0 -1 -80
-42 -177 -92z"/>
<path d="M1505 2203 c-178 -36 -337 -158 -416 -318 -111 -227 -74 -484 97
-665 112 -118 249 -180 407 -185 174 -5 314 51 437 174 324 326 173 868 -273
984 -52 14 -204 20 -252 10z"/>
<path d="M2260 1636 c0 -117 -9 -171 -42 -249 -12 -26 -18 -50 -16 -53 6 -5
35 -12 83 -18 32 -5 147 -23 180 -30 11 -2 42 -7 68 -10 27 -4 56 -9 65 -11
10 -1 40 -6 67 -9 28 -4 57 -9 65 -11 8 -2 33 -6 55 -10 22 -3 96 -15 165 -26
69 -11 136 -22 150 -24 43 -7 414 -66 440 -71 14 -2 41 -7 60 -10 19 -3 103
-16 185 -29 83 -13 173 -27 200 -32 28 -4 54 -8 58 -8 5 0 9 41 9 92 0 95 14
169 48 248 18 42 18 45 2 46 -9 0 -24 2 -32 4 -14 3 -374 62 -430 70 -62 10
-508 82 -715 115 -144 24 -149 25 -220 35 -27 3 -57 8 -65 10 -8 3 -33 7 -55
10 -74 11 -290 46 -307 49 -15 4 -17 -6 -18 -78z"/>
<path d="M4630 1713 c-154 -20 -304 -104 -394 -222 -92 -119 -126 -227 -123
-381 3 -125 31 -214 96 -310 96 -141 254 -239 408 -256 32 -3 67 -7 77 -8 54
-7 185 25 263 64 194 96 319 286 328 501 14 329 -237 602 -563 613 -37 1 -78
1 -92 -1z"/>
</g>
</svg>
