<svg xmlns="http://www.w3.org/2000/svg" width="55" height="55" viewBox="0 0 611.097 622.985">
    <g stroke="#946f3a" stroke-linecap="round" stroke-linejoin="round" stroke-miterlimit="10" stroke-width="4">
        <path class="st6" d="m332.227 546.857s1 40 2 51 3 16 20 17 41-2 50-4 16-6 14-29-4-51-4-51" fill="#e09c5c"/>
        <path class="st2" d="m417.227 599.657-0.1-0.6c-1.5-5.7-4.5-7-8-6.3-4.8 1-6.1 7.7-6.9 16.7 0 0.4-0.1 0.8-0.1 1.3l0.7 0.3c0.4-0.1 0.9-0.2 1.3-0.3 5.9-1.2 10.9-3.4 13.1-11.1z" fill="#fbc16c"/>
        <path class="st2" d="m423.827 227.857c46-5 79-28 84-32 0 0-14-12-3-20s18 2 18 2 23.5-29.9 43.5-13.9 27.5 32.9 20.5 48.9-52 72-147 85" fill="#fbc16c"/>
    </g>
    <path class="st4" d="m152.827 525.857c-16 15-41 23-54 5-13-18-4-26-7-30s-21 8-13 31 54 48 97 14" fill="#e09c5c"/>
    <path class="st2" d="m413.227 189.957s34.6 70.9 43.1 175.4c7.2 89 15 139-46 168s-142 24-180 25c-38 1-78-4-88-47s0.5-76.5 0.5-76.5 1.4-71.2-2.1-82.7-9.2-28.7-9.2-28.7-5.7 40.1-35.5 53.6c-29.8 13.6-56.1 0.8-53.9-36.5 0 0-25.5-42.6-37.6-79.9-12.1-37.3 19.8-73.9 78.3-58.8 2-71 63.6-130.7 149.1-137.7 85.4-7.1 106.3 38.7 151.9 40.7 44 2 75-12 98-35s70-53 107-29c0 0 18-6 20 10s-7 16-12 19c0 0 7 22-7 25s-12-18-12-18-23-3-42 27c-19 30-47.2 70.2-122.6 86.1-16.1 1.4-29.5-3.9-29.5-3.9" fill="#fbc16c" stroke="#946f3a" stroke-linecap="round" stroke-linejoin="round" stroke-miterlimit="10" stroke-width="4"/>
    <path class="st6" d="m172.827 532.857c0 23-4 53-5 64s3 22.4 21 23c28 1 82 5 87-12 6.3-21.6 5-58 0-70" fill="#e09c5c" stroke="#946f3a" stroke-linecap="round" stroke-linejoin="round" stroke-miterlimit="10" stroke-width="4"/>
    <g fill="#fbc16c">
        <g stroke="#946f3a" stroke-linecap="round" stroke-linejoin="round" stroke-miterlimit="10" stroke-width="4">
            <path class="st2" d="m208.027 620.557c0.8-9.7 1.8-15.7 6.8-16.7s8.8 3.1 8.9 17.1"/>
            <path class="st2" d="m224.027 620.557c0.8-9.7 1.8-15.7 6.8-16.7s8.8 3.1 8.9 17.1"/>
            <path class="st2" d="m239.827 620.857c0.8-9.7 2-17 6.99999-18 5-1 8.9 2.1 9 16"/>
        </g>
        <path d="m245.627 574.657h-15.4c-7.8 0-14.2-6.4-14.2-14.2s6.4-14.2 14.2-14.2h15.4c7.79999 0 14.2 6.4 14.2 14.2s-6.4 14.2-14.2 14.2z"/>
    </g>
    <path class="st4" d="m40.0272 262.057c7.3 9.1 20.6 38.2 19.8 61-0.9 22.9 23.8 32.8 36.8 13 13-19.8 16.6-58.4 7.6-77.2-9-18.9-13.9-26-13.9-26s-4.9 9-17.5 10.8-13-3.1-17.3-9.8c0 0 0.6 7.4-10.6 11.5-11.2 4.2-14.8-5-14.8-5s2.7 12.7 9.9 21.7z" fill="#e09c5c"/>
    <path class="st4" d="m222.327 556.457c-21.3 0-36.8-2.7-48.9-8.4-15.4-7.3-25-19.4-29.1-37.2-9.8-42 0.4-75.1 0.5-75.4l0.1-0.3v-0.3s0.1-3.7 0.1-9.7c13.9 0.5 33.3 2.8 50.3 10.8 16.8 7.9 27.4 19.6 31.6 34.6 9.3 33.4 33.5 49.6 74.1 49.6 12.6 0 27-1.5 43.9-4.6 8.6-1.6 17.1-2.8 25.3-4 38.7-5.6 72.8-10.5 87.9-47.9-3.3 28.9-14.8 51.7-48.6 67.8-51.3 24.4-116.2 24.5-159.1 24.6-7.69999 0-14.3 0-20.1 0.2-2.9 0.1-5.5 0.2-8 0.2z" fill="#e09c5c"/>
    <path d="m330.827 218.257c1.3-8.5 2-14.7-7.8-12.6s-69.8 18-80.5 20.3c-10.8 2.3-8.7 12.1 1.8 18 10.5 5.9 39.7 23.2 51.7 21.6s22.7-3.8 27.6-19.2c4.9-15.3 7.2-28.1 7.2-28.1z" fill="#2e2314" stroke="#2b2011" stroke-linecap="round" stroke-linejoin="round" stroke-miterlimit="10" stroke-width="4"/>
    <g transform="translate(-164.173 -156.043)">
        <path d="m458.6 419.7c-11.4 0-36.3-14.2-46.9-20.2l-2.2-1.3c-5.1-2.9-8.4-7.1-7.9-10.2 0.3-2 2.3-3.4 5.5-4.1 5.5-1.2 24-5.9 41.8-10.5l3.8-1c15.9 4.2 28.4 14.9 33.4 28.7l-0.2 0.7c-4.5 14-13.6 16.2-25.9 17.8-0.5 0.1-0.9 0.1-1.4 0.1z" fill="#ad4949"/>
    </g>
    <g transform="translate(-164.173 -156.043)">
        <path class="st33" d="m404 397c-3.6-2.6-5.6-6.3-5-9.5 0.5-2.8 2.7-4.7 6.3-5.4 5.8-1.2 25.1-6.2 43.7-11 8.9-2.3 17.5-4.5 24.3-6.2l3.4 15z" fill="#fff"/>
        <path class="st42" d="m471.9 367.4 2.5 11.1-70 16.4c-2.5-2.1-3.9-4.7-3.5-6.9 0.5-2.6 3.2-3.5 4.8-3.9 5.8-1.2 25.1-6.2 43.8-11 8.2-2.1 16-4.1 22.4-5.7m3-4.9c-20.4 5.1-61.2 15.8-70 17.7-10.3 2.2-10.6 13-1.3 19l75.6-17.8z" fill="#7d7d65"/>
    </g>
    <path class="st2" d="m128.627 148.057c-20.7 3.4-36.9-0.3-43.7-27.4-6.8-27.1 17-58.9 51.2-71.3s68-2.3 68-2.3 9.5-22.5 12.8-35.5c3.3-13 13.3-14.1 23.6 5.2 0 0 28.8-4.1 32.3 26.8 3.6 30.9-20.7 46.4-20.7 46.4" fill="#fbc16c" stroke="#946f3a" stroke-linecap="round" stroke-linejoin="round" stroke-miterlimit="10" stroke-width="4"/>
    <path class="st2" d="m240.627 16.6571c4.3 10.3 2.9 22.9 2.7 27" fill="#fbc16c" stroke="#946f3a" stroke-linecap="round" stroke-linejoin="round" stroke-miterlimit="10" stroke-width="4"/>
    <g transform="translate(-164.173 -156.043)">
        <path d="m358.6 376.9c2.2 5.7 6.2 9.9 8.9 8.3s2.9-5.7 0.4-12.4c-2.4-6.6-13.6-29.8-16.6-34.3s-6.4-5.8-9.1-4.2-1.9 5.5-0.1 9.2c1.9 3.8 16.5 33.4 16.5 33.4z"/>
    </g>
    <g transform="translate(-164.173 -156.043)">
        <path class="st33" d="m387.3 470.6c-4.3 0-8.8-0.5-13.2-1.6-21.2-5.2-32.9-21.5-36.5-34-2.3-8-1.6-14.9 2-18.5 3.2-3.3 6.7-5 10.2-5 7.5 0 14.4 7.2 17.8 11.5 7.6 9.5 14.8 14.3 21.4 14.3 5.3 0 9.9-3 13.7-9 10-15.4 12.7-34.1 8.2-55.4-1.5-7.1 0.3-11.2 2.1-13.4 1.8-2.3 4.5-3.6 7.3-3.6 1.6 0 3 0.4 4.2 1.2 18.2 11.8 20.2 52 13.6 74.4-5.6 18.8-23.9 39.1-50.8 39.1z" fill="#fff"/>
        <path class="st42" d="m420.2 357.9c1.2 0 2.2 0.3 3.1 0.9 7.6 4.9 13 16 15.2 31.2 2 13.6 1 29.3-2.5 41-2.9 9.9-9.1 19.2-17.3 26-9.1 7.6-20 11.6-31.5 11.6-4.2 0-8.4-0.5-12.7-1.6-20.4-5-31.6-20.7-35-32.6-2.1-7.2-1.5-13.5 1.5-16.5 2.9-2.9 5.8-4.4 8.8-4.4 6.9 0 13.7 7.5 16.3 10.7 8 10 15.7 15 22.9 15 6 0 11.2-3.3 15.4-9.9 10.3-15.9 13.1-35 8.4-56.9-1.1-4.9-0.5-9.1 1.7-11.7 1.5-1.8 3.6-2.8 5.7-2.8m0-4c-6.7 0-14.1 6.4-11.3 19.4 3.6 16.6 3.6 36-7.9 53.8-3.8 5.9-8 8.1-12.1 8.1-8.2 0-16.1-8.8-19.8-13.5-3.8-4.8-11.1-12.2-19.4-12.2-3.8 0-7.7 1.5-11.7 5.6-11 11.3 2 47.6 35.5 55.8 4.7 1.2 9.3 1.7 13.7 1.7 26.7 0 46.6-19.8 52.7-40.5 7.1-24 4.6-64.4-14.4-76.7-1.5-1-3.4-1.5-5.3-1.5z" fill="#7d7d65"/>
    </g>
    <path d="m203.127 285.457c6.5 1.7 19.4 2 29.8-6.6" fill="none" stroke="#7d7d65" stroke-linecap="round" stroke-linejoin="round" stroke-miterlimit="10" stroke-width="4"/>
    <path d="m86.3272 236.957c-3.7 5-10.1 7.9-16.3 7.2-6.2-0.6-11.9-4.7-14.5-10.4-1.1 5.4-5.3 10.2-10.6 11.5-5.3 1.3-11.4-0.7-14.8-5 1.6 13 12 22.7 16.5 35" fill="none" stroke="#946f3a" stroke-linecap="round" stroke-linejoin="round" stroke-miterlimit="10" stroke-width="4"/>
    <path d="m176.327 248.157-17.1 6.5c-5 1.9-10.6-0.6-12.4-5.6-1.9-5 0.6-10.6 5.6-12.4l17.1-6.5c5-1.9 10.6 0.6 12.4 5.6 1.9 4.9-0.6 10.5-5.6 12.4z" fill="#e68a4c"/>
    <g fill="none" stroke="#fbd7a3" stroke-linecap="round" stroke-linejoin="round" stroke-miterlimit="10" stroke-width="4">
        <path class="st34" d="m538.327 46.6571c7.3-2.8 14.1-4.3 19.2-3.8"/>
        <path class="st34" d="m474.327 95.7571c11.7-11.4 21.9-20.7 31.6-29.6 3.9-3.5 8.7-7.1 13.9-10.3"/>
        <path class="st34" d="m384.227 121.257c15.7 1.4 33.6-0.1 52.7-6.6"/>
        <path class="st34" d="m274.627 78.9571c19.9 3.5 36.4 12.2 56.1 23.6"/>
    </g>
    <g transform="translate(-164.173 -156.043)">
        <path class="st2" d="m311 486.9c-48 22-68 37-57 78s59 41 59 41-8 25 18 28 55-5 56-41-20-61-63-65" fill="#fbc16c" stroke="#946f3a" stroke-linecap="round" stroke-linejoin="round" stroke-miterlimit="10" stroke-width="4"/>
        <path class="st2" d="m313 605.9c10 2 25 2 25 2" fill="#fbc16c" stroke="#946f3a" stroke-linecap="round" stroke-linejoin="round" stroke-miterlimit="10" stroke-width="4"/>
        <path d="m354.2 548.6 6.5 6.8c4.9 5.1 4.7 13.3-0.4 18.2l-1.9 1.8c-5.1 4.9-13.3 4.7-18.2-0.4l-6.5-6.8c-4.9-5.1-4.7-13.3 0.4-18.2l1.9-1.8c5.1-4.9 13.3-4.7 18.2 0.4z" fill="#fdd06e"/>
    </g>
    <path d="m309.827 254.457-6.5 2.6c-4.9 1.9-10.5-0.5-12.4-5.4l-0.7-1.8c-1.9-4.9 0.5-10.5 5.4-12.4l6.5-2.6c4.9-1.9 10.5 0.5 12.4 5.4l0.7 1.8c2 4.9-0.5 10.5-5.4 12.4z" fill="#b9655a"/>
    <path class="st2" d="m131.527 323.357c1.8-14 0.6-22.1 0.6-22.1" fill="#fbc16c" stroke="#946f3a" stroke-linecap="round" stroke-linejoin="round" stroke-miterlimit="10" stroke-width="4"/>
</svg>