<?xml version="1.0" standalone="no"?>
<!DOCTYPE svg PUBLIC "-//W3C//DTD SVG 20010904//EN"
 "http://www.w3.org/TR/2001/REC-SVG-20010904/DTD/svg10.dtd">
<svg version="1.0" xmlns="http://www.w3.org/2000/svg"
 width="700.000000pt" height="700.000000pt" viewBox="0 0 700.000000 700.000000"
 preserveAspectRatio="xMidYMid meet">
<metadata>
Created by potrace 1.14, written by Peter Selinger 2001-2017
</metadata>
<g transform="translate(0.000000,700.000000) scale(0.100000,-0.100000)"
fill="#000000" stroke="none">
<path d="M2553 6988 c-27 -13 -63 -86 -97 -197 -26 -82 -105 -291 -110 -291
-2 0 -28 5 -57 10 -228 44 -471 31 -673 -35 -71 -23 -227 -99 -260 -126 -6 -5
-36 -29 -67 -54 -217 -171 -335 -427 -295 -634 19 -95 76 -212 126 -259 l28
-26 -29 -59 c-27 -53 -88 -207 -89 -225 0 -4 -5 -25 -11 -47 -6 -22 -13 -51
-15 -65 -2 -14 -6 -34 -9 -45 -4 -20 -18 -138 -18 -162 0 -15 -3 -16 -44 -4
-48 14 -169 24 -258 22 -293 -7 -531 -175 -595 -419 -14 -53 -14 -183 -1 -243
36 -159 195 -521 366 -834 65 -117 72 -136 73 -189 5 -210 103 -360 270 -411
39 -11 139 -15 187 -6 l45 8 1 -63 c1 -35 2 -67 3 -71 1 -5 6 -35 10 -67 26
-192 137 -363 298 -459 58 -34 228 -97 263 -97 13 0 15 -12 8 -82 -24 -278 14
-579 94 -761 30 -66 32 -63 -62 -112 -83 -44 -126 -56 -208 -60 -85 -5 -136 9
-194 51 -72 54 -144 201 -138 284 1 14 3 39 5 55 4 57 1 65 -25 65 -34 0 -105
-72 -127 -128 -21 -55 -18 -169 7 -232 54 -137 199 -254 385 -312 107 -33 292
-32 400 1 79 24 196 77 206 92 3 5 11 9 19 9 14 0 14 -65 0 -185 -3 -22 -8
-69 -11 -105 -3 -36 -8 -76 -10 -90 -3 -14 -8 -74 -10 -133 -4 -99 -2 -112 20
-155 28 -54 53 -77 110 -102 62 -27 105 -31 431 -35 372 -5 509 11 612 71 59
34 79 68 98 164 23 120 28 186 29 338 l0 132 51 1 c136 2 340 18 463 34 l32 5
1 -58 c2 -122 17 -389 25 -452 12 -97 60 -142 176 -166 26 -5 274 -5 328 0
355 35 405 51 456 146 27 50 27 220 -1 535 -2 22 -6 87 -10 145 -4 58 -9 107
-11 109 -2 2 27 22 64 44 37 22 73 47 80 54 7 7 17 13 21 13 13 0 149 138 180
183 94 136 146 285 169 482 15 124 7 540 -13 770 -2 22 -7 81 -10 130 -3 50
-8 101 -10 115 -3 14 -7 67 -10 118 -4 51 -8 101 -10 111 -3 18 -9 66 -20 171
-3 30 -8 62 -10 70 -2 8 -7 39 -10 67 -4 29 -17 110 -30 180 -13 71 -23 128
-22 129 1 0 51 10 110 23 309 63 607 181 865 343 51 32 98 62 105 68 6 6 35
27 62 47 172 127 369 348 425 474 50 114 33 255 -45 371 -64 96 -191 215 -260
244 -106 44 -250 -4 -380 -127 l-52 -49 -38 20 c-50 26 -94 25 -147 -1 -98
-48 -111 -137 -36 -241 15 -21 11 -24 -105 -93 -165 -99 -404 -190 -617 -236
-118 -25 -106 -31 -145 81 -15 41 -32 89 -40 105 -7 17 -26 62 -43 101 l-30
71 86 23 c554 146 910 398 1219 861 48 74 95 142 103 153 30 40 133 137 168
160 47 29 137 63 181 68 28 2 34 -1 37 -17 1 -11 4 -36 7 -55 14 -113 112
-163 204 -105 55 34 79 131 60 235 -6 33 -4 36 33 53 58 27 84 68 88 145 10
144 -58 216 -194 205 -42 -4 -62 1 -105 22 -152 78 -346 88 -534 29 -77 -24
-177 -66 -207 -87 -16 -10 -28 -16 -28 -13 0 8 -164 -98 -231 -150 -32 -24
-106 -89 -165 -144 -60 -55 -140 -122 -179 -149 -76 -52 -225 -135 -225 -125
0 4 -6 2 -12 -4 -20 -16 -154 -58 -241 -76 -111 -23 -183 -30 -337 -30 -246 0
-295 16 -704 229 -213 111 -331 156 -523 197 l-103 23 8 40 c12 68 6 207 -12
265 -9 30 -29 73 -44 95 -34 49 -114 111 -156 120 -17 4 -38 9 -46 11 -8 3
-34 6 -57 7 -40 3 -83 31 -83 54 0 16 -75 86 -107 99 -38 16 -60 17 -90 2z
m-993 -3743 c0 -7 -6 -15 -13 -18 -10 -4 -13 2 -9 19 4 24 22 24 22 -1z"/>
</g>
</svg>
